<svg xmlns="http://www.w3.org/2000/svg" viewBox="0 0 800 200"><defs><style>.cls-1{fill:#3a3a3a;}.cls-2{fill:#cb1e1e;}</style></defs><title>Amadeus</title><path class="cls-1" d="M310.68,158.47a6.87,6.87,0,0,1-3.62-3.05,10.65,10.65,0,0,1-1.06-5.07v-44.2q0-15-6.43-22.24t-17.44-7.23a33.82,33.82,0,0,0-10.08,1.41,29.1,29.1,0,0,0-7.89,3.71,46.37,46.37,0,0,0-6.39,5l-5.59,5.43a25.82,25.82,0,0,0-8.73-11,23.65,23.65,0,0,0-14.56-4.54,34.16,34.16,0,0,0-10,1.41,28.18,28.18,0,0,0-7.73,3.53,48,48,0,0,0-5.91,4.85c-2.11,2-3.91,3.74-5.38,5.21h-.62V79.24L198,78l-29.12,1.94v5.83a26.82,26.82,0,0,1,5.12.83,15.2,15.2,0,0,1,4.15,1.72,11.63,11.63,0,0,1,3.57,3.84A10,10,0,0,1,183,97.22v54a10,10,0,0,1-1.19,5.16,6.34,6.34,0,0,1-3.66,2.77,15.83,15.83,0,0,1-3.75.71l-4.19.35v5.82h42.26v-5.82a28.73,28.73,0,0,1-4.32-.62,17.85,17.85,0,0,1-3.8-1.32,7.7,7.7,0,0,1-3.7-3.09,9.45,9.45,0,0,1-1.24-5V100.32l2.65-3.66a21.37,21.37,0,0,1,4.34-4.37,27.13,27.13,0,0,1,7-3.75,23.94,23.94,0,0,1,8.14-1.36,13.16,13.16,0,0,1,10.48,5q4.2,5,4.2,14.16v44.91a9.86,9.86,0,0,1-1.19,5.16,6.33,6.33,0,0,1-3.66,2.78,15.3,15.3,0,0,1-3.49.71l-3.92.35v5.82h41.47v-5.82a26.72,26.72,0,0,1-4.28-.57,29.5,29.5,0,0,1-3.66-1.19,6.83,6.83,0,0,1-3.62-3.05,10.65,10.65,0,0,1-1.06-5.07v-50.2a41,41,0,0,1,2.6-3.75,22.15,22.15,0,0,1,4.28-4.19,25.52,25.52,0,0,1,7-3.71,24.56,24.56,0,0,1,8.12-1.32,13.11,13.11,0,0,1,10.45,5q4.2,5,4.19,14.16v44.91a9.86,9.86,0,0,1-1.19,5.16,6.3,6.3,0,0,1-3.66,2.78,15.63,15.63,0,0,1-3.66.71l-4.1.35v5.82h42.35v-5.82a37.5,37.5,0,0,1-4.46-.57A24.26,24.26,0,0,1,310.68,158.47Z"/><path class="cls-1" d="M401.82,157.85a9.62,9.62,0,0,1-3.66-3.44,10.72,10.72,0,0,1-1.19-5.47q0-11.56.26-21.31t.27-22.37c0-5.88-.79-10.68-2.34-14.42A20.36,20.36,0,0,0,388.32,82a23.87,23.87,0,0,0-10-4.37,73,73,0,0,0-12.93-1,37.61,37.61,0,0,0-11,1.72,41.15,41.15,0,0,0-9.62,4.19,28.72,28.72,0,0,0-7.45,6.62,12.38,12.38,0,0,0-.8,14.78Q338.57,107,343,107c3.29,0,5.87-.85,7.72-2.56a7.58,7.58,0,0,0,2.78-5.65,26.89,26.89,0,0,0-.84-6.35,24.07,24.07,0,0,1-.84-5.2,13.61,13.61,0,0,1,4.9-2.87A20.49,20.49,0,0,1,364.23,83c3.94,0,7,.81,9.13,2.43a17.58,17.58,0,0,1,5,5.69,18.37,18.37,0,0,1,2.07,6.17,38.18,38.18,0,0,1,.49,4.42v8.73q-4.23,2.3-16.37,6.35t-16.1,5.56a51.72,51.72,0,0,0-6.79,3.31,21.12,21.12,0,0,0-5.83,4.72,21.53,21.53,0,0,0-4.23,7.15,26.73,26.73,0,0,0-1.41,9q0,9.7,6.3,15.7t16.11,6a34.55,34.55,0,0,0,15.83-3.35,43,43,0,0,0,12.31-9.71h.53a14.88,14.88,0,0,0,5.25,9.4q4.11,3.21,11,3.22a25,25,0,0,0,7.1-.93q3.12-.91,7.28-2.42v-5.65c-2,0-4,0-5.87-.09A9,9,0,0,1,401.82,157.85Zm-21.26-9.46a32.21,32.21,0,0,1-8,7.2,20,20,0,0,1-11,3,14,14,0,0,1-9.75-3.44q-3.84-3.45-3.84-10.79a18.06,18.06,0,0,1,2.56-9.77,23.82,23.82,0,0,1,7-7.12,53.3,53.3,0,0,1,10.5-5.31q5.64-2.11,13.15-4.33Z"/><path class="cls-1" d="M505.14,157a10.22,10.22,0,0,1-3.49-3.66,10.78,10.78,0,0,1-1.19-5.25V30.8l-1.33-1.32-35.64,1.94v5.47a86,86,0,0,1,9,1.1,17.25,17.25,0,0,1,6.67,2.43,10.44,10.44,0,0,1,3.44,4.64,18,18,0,0,1,1.23,6.77V82.15a42.64,42.64,0,0,0-10.09-3.93,46.54,46.54,0,0,0-11.93-1.54,38.27,38.27,0,0,0-15.91,3.53,39.55,39.55,0,0,0-13.17,9.44,47.22,47.22,0,0,0-9,14.82,49.52,49.52,0,0,0-3.26,17.91,56.22,56.22,0,0,0,3,18.88,46.16,46.16,0,0,0,8.24,14.65,36.28,36.28,0,0,0,12,9.31,32.86,32.86,0,0,0,14.31,3.3A31.57,31.57,0,0,0,472,165.26a36,36,0,0,0,11.32-8.38l.71.18v8.11l1.33,1.24,30.43-1.94v-5.83q-2.64-.07-5.82-.35A11,11,0,0,1,505.14,157Zm-21.27-7.77a37.78,37.78,0,0,1-7.79,6.8q-4.62,3.09-11.67,3.08a21,21,0,0,1-11.4-3,24.31,24.31,0,0,1-7.88-7.94,35.63,35.63,0,0,1-4.76-11.25A59.21,59.21,0,0,1,439,123.44a69.81,69.81,0,0,1,1.9-16.9A40.63,40.63,0,0,1,446,94a25.93,25.93,0,0,1,7.88-7.85,18.22,18.22,0,0,1,9.73-2.74,20.41,20.41,0,0,1,8,1.46,22.49,22.49,0,0,1,6,3.66,21.83,21.83,0,0,1,4,4.85,23,23,0,0,1,2.29,4.94Z"/><path class="cls-1" d="M584.41,155.05a24.33,24.33,0,0,1-13.54,3.68,27.74,27.74,0,0,1-13.24-3,24.7,24.7,0,0,1-9-8.09,37.48,37.48,0,0,1-5.16-12.29,68.48,68.48,0,0,1-1.63-15.57h57.61V114a51.25,51.25,0,0,0-2-14.56,32.88,32.88,0,0,0-6.05-11.65,29.16,29.16,0,0,0-11-8.2,40.29,40.29,0,0,0-16.33-3,36,36,0,0,0-16.72,3.84,38.13,38.13,0,0,0-12.48,10.1,47,47,0,0,0-7.9,14.69,52.87,52.87,0,0,0-2.69,16.63,62.42,62.42,0,0,0,2.52,17.91,42.55,42.55,0,0,0,7.63,14.82,36.07,36.07,0,0,0,13,10.06,42.89,42.89,0,0,0,18.4,3.71,36.82,36.82,0,0,0,21.08-6.18,44.49,44.49,0,0,0,14.65-16.58l-6.18-3.8Q590.11,151.38,584.41,155.05ZM548.5,91q6.13-7.69,15.4-7.69A15.12,15.12,0,0,1,573,85.85a17.93,17.93,0,0,1,5.56,6.59,32.37,32.37,0,0,1,2.69,9.41,71.91,71.91,0,0,1,.84,10.56H541.84Q542.37,98.69,548.5,91Z"/><path class="cls-1" d="M696.24,157a11.14,11.14,0,0,1-3.44-3.61,9.93,9.93,0,0,1-1.24-5.12v-69L690.24,78l-31.67,2.12v5.82q3.87.18,7,.4a9.72,9.72,0,0,1,4.72,1.28,11.41,11.41,0,0,1,3.44,3.83A10.59,10.59,0,0,1,675,96.61v49.26a23.12,23.12,0,0,1-2.78,3.83,29.78,29.78,0,0,1-4.19,3.92,25.11,25.11,0,0,1-6.36,3.53,23.36,23.36,0,0,1-8.64,1.49,13.13,13.13,0,0,1-10.15-4.76q-4.23-4.77-4.23-14.21V79.24L637.3,78l-29,2.12v5.82a39.42,39.42,0,0,1,5.06.66,11.35,11.35,0,0,1,4,1.54,11.13,11.13,0,0,1,3.51,3.75,10.86,10.86,0,0,1,1.2,5.33v41.6q0,14.37,6,21.91t17.58,7.53A34.4,34.4,0,0,0,656.13,167a38.61,38.61,0,0,0,7.66-3.61,33.14,33.14,0,0,0,6.08-4.55c1.76-1.67,3.35-3.25,4.75-4.72h.53v11l1.33,1.24,28.41-1.94v-5.83a45.61,45.61,0,0,1-4.86-.39A9.82,9.82,0,0,1,696.24,157Z"/><path class="cls-1" d="M778.56,130.76a22.39,22.39,0,0,0-5.56-7.32,36.21,36.21,0,0,0-8.51-5.47,84.31,84.31,0,0,0-11-4.32q-5.91-2-9.92-3.49a34.2,34.2,0,0,1-6.67-3.31,12.11,12.11,0,0,1-4.1-4.5,14.32,14.32,0,0,1-1.37-6.61,11.29,11.29,0,0,1,4.15-8.8Q739.73,83.3,747,83.3a20.79,20.79,0,0,1,15,5.89,28.13,28.13,0,0,1,8,15.28H776l-1.32-28h-6.36l-2,4.59a36.43,36.43,0,0,0-8.7-3.18,43.44,43.44,0,0,0-10.45-1.32q-13.32,0-21.26,7.41A23.78,23.78,0,0,0,718,102.09a21.64,21.64,0,0,0,2.47,10.59,24.6,24.6,0,0,0,6.35,7.58,36.57,36.57,0,0,0,8.69,5.08,86.37,86.37,0,0,0,9.22,3.39q5.21,1.59,9.44,3.22a33.77,33.77,0,0,1,7.15,3.67,14.13,14.13,0,0,1,4.28,4.72,13.23,13.23,0,0,1,1.45,6.39q0,7.19-4.59,11.05t-13.06,3.86a21.93,21.93,0,0,1-10.8-2.65,30.68,30.68,0,0,1-8.25-6.55,38.67,38.67,0,0,1-5.56-8.33,33.79,33.79,0,0,1-3-8.05h-6.09l.88,30.26h6.62l1.77-5.74a37.8,37.8,0,0,0,9.13,5,35.22,35.22,0,0,0,14,2.74q14.38,0,23.43-7.68a24.74,24.74,0,0,0,9-19.76A23.93,23.93,0,0,0,778.56,130.76Z"/><path class="cls-2" d="M157,166.05l-49.06-127h-7.06Q92,62,80.58,91.41c-7.17,18.49-10.81,27.85-16.41,41.86a34.39,34.39,0,0,0-5.05-3.12q-8.48-4.07-15.36-4.06-10.84,0-17.55,6.31A20.5,20.5,0,0,0,19.5,148q0,8.82,5.6,14.25t15.22,5.43a32,32,0,0,0,15-3.58A20.92,20.92,0,0,0,65,154.54c.24-.5.64-1.59.64-1.59s9.69-26.1,11.34-30.22L98.77,66.3,121,122.73l4.74,12.81C111.33,125,96,118.49,78.88,117.88c27,15.54,46.51,35.31,58.08,48.17Z"/></svg>